<svg xmlns="http://www.w3.org/2000/svg" xmlns:xlink="http://www.w3.org/1999/xlink" width="2369.939" height="490.836" overflow="visible" xml:space="preserve" style="overflow:visible"><defs><linearGradient id="p" gradientUnits="userSpaceOnUse" x1="99.227" y1="45.67" x2="97.723" y2="45.239"><stop offset="0" style="stop-color:#8aa742"/><stop offset=".1" style="stop-color:#8aa742"/><stop offset=".25" style="stop-color:#b7ca33"/><stop offset=".405" style="stop-color:#b7ca33"/><stop offset="1" style="stop-color:#8aa742"/></linearGradient><linearGradient id="q" gradientUnits="userSpaceOnUse" x1="107.311" y1="17.111" x2="105.865" y2="17.01"><stop offset="0" style="stop-color:#83b641"/><stop offset=".2" style="stop-color:#b7ca33"/><stop offset=".525" style="stop-color:#b7ca33"/><stop offset="1" style="stop-color:#8aa742"/></linearGradient><linearGradient id="r" gradientUnits="userSpaceOnUse" x1="170.769" y1="20.577" x2="171.415" y2="21.652"><stop offset="0" style="stop-color:#83b641"/><stop offset="1" style="stop-color:#595e48"/></linearGradient><linearGradient id="s" gradientUnits="userSpaceOnUse" x1="172.434" y1="21.409" x2="172.026" y2="21.895"><stop offset="0" style="stop-color:#8aa742"/><stop offset="1" style="stop-color:#595e48"/></linearGradient><linearGradient id="t" gradientUnits="userSpaceOnUse" x1="173.042" y1="21.805" x2="173.042" y2="22.834"><stop offset="0" style="stop-color:#8aa742"/><stop offset="1" style="stop-color:#767e47"/></linearGradient><linearGradient id="u" gradientUnits="userSpaceOnUse" x1="155.32" y1="77.938" x2="153.91" y2="77.839"><stop offset="0" style="stop-color:#767e47"/><stop offset="1" style="stop-color:#8aa742"/></linearGradient><linearGradient id="v" gradientUnits="userSpaceOnUse" x1="155.982" y1="78.063" x2="155.071" y2="79.075"><stop offset="0" style="stop-color:#767e47"/><stop offset="1" style="stop-color:#595e48"/></linearGradient><linearGradient id="w" gradientUnits="userSpaceOnUse" x1="90.361" y1="79.839" x2="154.649" y2="79.839"><stop offset="0" style="stop-color:#8aa742"/><stop offset=".4" style="stop-color:#b7ca33"/><stop offset="1" style="stop-color:#8aa742"/></linearGradient><linearGradient id="x" gradientUnits="userSpaceOnUse" x1="89.969" y1="74.917" x2="88.951" y2="73.786"><stop offset="0" style="stop-color:#767e47"/><stop offset=".1" style="stop-color:#767e47"/><stop offset=".65" style="stop-color:#83b641"/><stop offset="1" style="stop-color:#8aa742"/></linearGradient><linearGradient id="y" gradientUnits="userSpaceOnUse" x1="89.936" y1="73.087" x2="90.676" y2="74.424"><stop offset="0" style="stop-color:#8aa742"/><stop offset=".405" style="stop-color:#83b641"/><stop offset=".8" style="stop-color:#8aa742"/><stop offset="1" style="stop-color:#8aa742"/></linearGradient><linearGradient id="z" gradientUnits="userSpaceOnUse" x1="163.585" y1="49.529" x2="162.087" y2="49.1"><stop offset="0" style="stop-color:#595e48"/><stop offset="1" style="stop-color:#83b641"/></linearGradient><linearGradient id="A" gradientUnits="userSpaceOnUse" x1="159.869" y1="57.84" x2="100.46" y2="40.804"><stop offset="0" style="stop-color:#6fbc48"/><stop offset=".333" style="stop-color:#98c74f"/><stop offset=".667" style="stop-color:#80c046"/><stop offset="1" style="stop-color:#607d3a"/></linearGradient><linearGradient id="B" gradientUnits="userSpaceOnUse" x1=".187" y1="129.191" x2="63.144" y2="129.191"><stop offset="0" style="stop-color:#76a5d8"/><stop offset=".45" style="stop-color:#dae3ec"/><stop offset="1" style="stop-color:#3f87c7"/></linearGradient><linearGradient id="D" gradientUnits="userSpaceOnUse" x1="70.161" y1="110.956" x2="10.682" y2="93.901"><stop offset="0" style="stop-color:#2e499e"/><stop offset=".4" style="stop-color:#4496d1"/><stop offset=".725" style="stop-color:#a5cded"/><stop offset="1" style="stop-color:#007fc4"/></linearGradient><linearGradient id="E" gradientUnits="userSpaceOnUse" x1="16.247" y1="74.212" x2="16.247" y2="74.621"><stop offset="0" style="stop-color:#76a5d8"/><stop offset="1" style="stop-color:#2e499e"/></linearGradient><linearGradient id="G" gradientUnits="userSpaceOnUse" x1="19.111" y1="62.353" x2="82.387" y2="62.353"><stop offset="0" style="stop-color:#faab4f"/><stop offset=".25" style="stop-color:#faab4f"/><stop offset=".475" style="stop-color:#fcc193"/><stop offset=".525" style="stop-color:#fcc193"/><stop offset=".75" style="stop-color:#f89c3e"/><stop offset="1" style="stop-color:#f89c3e"/></linearGradient><linearGradient id="H" gradientUnits="userSpaceOnUse" x1="89.187" y1="44.529" x2="29.654" y2="27.458"><stop offset="0" style="stop-color:#cd2b2b"/><stop offset=".4" style="stop-color:#f2692a"/><stop offset=".725" style="stop-color:#fcb544"/><stop offset="1" style="stop-color:#f37237"/></linearGradient><linearGradient id="I" gradientUnits="userSpaceOnUse" x1="137.679" y1="144.478" x2="137.342" y2="145.736"><stop offset="0" style="stop-color:#d4a52e"/><stop offset="1" style="stop-color:#a87c3c"/></linearGradient><linearGradient id="J" gradientUnits="userSpaceOnUse" x1="153.529" y1="89.365" x2="153.529" y2="90.4"><stop offset=".006" style="stop-color:#c19236"/><stop offset="1" style="stop-color:#d4a52e"/></linearGradient><linearGradient id="K" gradientUnits="userSpaceOnUse" x1="151.23" y1="88.142" x2="151.881" y2="89.226"><stop offset=".006" style="stop-color:#ffcd02"/><stop offset="1" style="stop-color:#a87c3c"/></linearGradient><linearGradient id="L" gradientUnits="userSpaceOnUse" x1="152.927" y1="88.973" x2="152.528" y2="89.448"><stop offset=".006" style="stop-color:#ffcd02"/><stop offset="1" style="stop-color:#a87c3c"/></linearGradient><linearGradient id="M" gradientUnits="userSpaceOnUse" x1="136.367" y1="143.903" x2="134.954" y2="143.805"><stop offset="0" style="stop-color:#c19236"/><stop offset="1" style="stop-color:#ffcd02"/></linearGradient><linearGradient id="N" gradientUnits="userSpaceOnUse" x1="80.171" y1="111.635" x2="78.693" y2="111.211"><stop offset="0" style="stop-color:#d4a52e"/><stop offset=".1" style="stop-color:#d4a52e"/><stop offset=".2" style="stop-color:#ffc222"/><stop offset=".35" style="stop-color:#ffc222"/><stop offset="1" style="stop-color:#d4a52e"/></linearGradient><linearGradient id="O" gradientUnits="userSpaceOnUse" x1="144.299" y1="116.277" x2="142.898" y2="115.876"><stop offset="0" style="stop-color:#a87c3c"/><stop offset="1" style="stop-color:#ffd200"/></linearGradient><linearGradient id="P" gradientUnits="userSpaceOnUse" x1="136.955" y1="143.748" x2="136.251" y2="145.329"><stop offset="0" style="stop-color:#c19236"/><stop offset="1" style="stop-color:#d4a52e"/></linearGradient><linearGradient id="Q" gradientUnits="userSpaceOnUse" x1="71.437" y1="145.625" x2="135.694" y2="145.625"><stop offset="0" style="stop-color:#d4a52e"/><stop offset=".4" style="stop-color:#ffd200"/><stop offset="1" style="stop-color:#d4a52e"/></linearGradient><linearGradient id="R" gradientUnits="userSpaceOnUse" x1="70.992" y1="140.863" x2="69.957" y2="139.714"><stop offset="0" style="stop-color:#d4a52e"/><stop offset=".1" style="stop-color:#d4a52e"/><stop offset=".7" style="stop-color:#ffd200"/><stop offset="1" style="stop-color:#d4a52e"/></linearGradient><linearGradient id="S" gradientUnits="userSpaceOnUse" x1="71.022" y1="138.934" x2="71.755" y2="140.255"><stop offset="0" style="stop-color:#d4a52e"/><stop offset=".4" style="stop-color:#ffc222"/><stop offset=".8" style="stop-color:#ffcd02"/><stop offset="1" style="stop-color:#d4a52e"/></linearGradient><linearGradient id="U" gradientUnits="userSpaceOnUse" x1="88.188" y1="83.368" x2="86.717" y2="83.265"><stop offset="0" style="stop-color:#ffc222"/><stop offset=".2" style="stop-color:#ffc222"/><stop offset=".525" style="stop-color:#ffd200"/><stop offset="1" style="stop-color:#d4a52e"/></linearGradient><linearGradient xlink:href="#p" id="V" gradientUnits="userSpaceOnUse" x1="99.227" y1="45.67" x2="97.723" y2="45.239"/><linearGradient xlink:href="#q" id="W" gradientUnits="userSpaceOnUse" x1="107.311" y1="17.111" x2="105.865" y2="17.01"/><linearGradient xlink:href="#r" id="X" gradientUnits="userSpaceOnUse" x1="170.769" y1="20.577" x2="171.415" y2="21.652"/><linearGradient xlink:href="#s" id="Y" gradientUnits="userSpaceOnUse" x1="172.434" y1="21.409" x2="172.026" y2="21.895"/><linearGradient xlink:href="#t" id="Z" gradientUnits="userSpaceOnUse" x1="173.042" y1="21.805" x2="173.042" y2="22.834"/><linearGradient xlink:href="#u" id="aa" gradientUnits="userSpaceOnUse" x1="155.32" y1="77.938" x2="153.91" y2="77.839"/><linearGradient xlink:href="#v" id="ab" gradientUnits="userSpaceOnUse" x1="155.982" y1="78.063" x2="155.071" y2="79.075"/><linearGradient xlink:href="#w" id="ac" gradientUnits="userSpaceOnUse" x1="90.361" y1="79.839" x2="154.649" y2="79.839"/><linearGradient xlink:href="#x" id="ad" gradientUnits="userSpaceOnUse" x1="89.969" y1="74.917" x2="88.951" y2="73.786"/><linearGradient xlink:href="#y" id="ae" gradientUnits="userSpaceOnUse" x1="89.936" y1="73.087" x2="90.676" y2="74.424"/><linearGradient xlink:href="#z" id="af" gradientUnits="userSpaceOnUse" x1="163.585" y1="49.529" x2="162.087" y2="49.1"/><linearGradient xlink:href="#A" id="ah" gradientUnits="userSpaceOnUse" x1="159.869" y1="57.84" x2="100.46" y2="40.804"/><linearGradient xlink:href="#B" id="ai" gradientUnits="userSpaceOnUse" x1=".187" y1="129.191" x2="63.144" y2="129.191"/><linearGradient xlink:href="#D" id="ak" gradientUnits="userSpaceOnUse" x1="70.161" y1="110.956" x2="10.682" y2="93.901"/><linearGradient xlink:href="#E" id="al" gradientUnits="userSpaceOnUse" x1="16.247" y1="74.212" x2="16.247" y2="74.621"/><linearGradient xlink:href="#G" id="an" gradientUnits="userSpaceOnUse" x1="19.111" y1="62.353" x2="82.387" y2="62.353"/><linearGradient xlink:href="#H" id="ao" gradientUnits="userSpaceOnUse" x1="89.187" y1="44.529" x2="29.654" y2="27.458"/><linearGradient xlink:href="#I" id="ap" gradientUnits="userSpaceOnUse" x1="137.679" y1="144.478" x2="137.342" y2="145.736"/><linearGradient xlink:href="#J" id="aq" gradientUnits="userSpaceOnUse" x1="153.529" y1="89.365" x2="153.529" y2="90.4"/><linearGradient xlink:href="#K" id="ar" gradientUnits="userSpaceOnUse" x1="151.23" y1="88.142" x2="151.881" y2="89.226"/><linearGradient xlink:href="#L" id="as" gradientUnits="userSpaceOnUse" x1="152.927" y1="88.973" x2="152.528" y2="89.448"/><linearGradient xlink:href="#M" id="at" gradientUnits="userSpaceOnUse" x1="136.367" y1="143.903" x2="134.954" y2="143.805"/><linearGradient xlink:href="#N" id="au" gradientUnits="userSpaceOnUse" x1="80.171" y1="111.635" x2="78.693" y2="111.211"/><linearGradient xlink:href="#O" id="av" gradientUnits="userSpaceOnUse" x1="144.299" y1="116.277" x2="142.898" y2="115.876"/><linearGradient xlink:href="#P" id="aw" gradientUnits="userSpaceOnUse" x1="136.955" y1="143.748" x2="136.251" y2="145.329"/><linearGradient xlink:href="#Q" id="ax" gradientUnits="userSpaceOnUse" x1="71.437" y1="145.625" x2="135.694" y2="145.625"/><linearGradient xlink:href="#R" id="ay" gradientUnits="userSpaceOnUse" x1="70.992" y1="140.863" x2="69.957" y2="139.714"/><linearGradient xlink:href="#S" id="az" gradientUnits="userSpaceOnUse" x1="71.022" y1="138.934" x2="71.755" y2="140.255"/><linearGradient id="aA" gradientUnits="userSpaceOnUse" x1="140.966" y1="123.625" x2="81.423" y2="106.551"><stop offset="0" style="stop-color:#ffc907"/><stop offset=".167" style="stop-color:#ffd200"/><stop offset=".333" style="stop-color:#ffd952"/><stop offset=".625" style="stop-color:#ffcd02"/><stop offset="1" style="stop-color:#b77a36"/></linearGradient><linearGradient xlink:href="#U" id="aC" gradientUnits="userSpaceOnUse" x1="88.188" y1="83.368" x2="86.717" y2="83.265"/><path id="a" d="M63.135 134.475c-14.331-9.648-29.868-17.465-62.942-3.793l16.045-56.079c33.079-13.68 49.107-6.4 63.426 3.303z"/><path id="b" d="m35.432 7.781-.182-.052a.523.523 0 0 1 .298-.35l.027-.008c.001.001-.06.126-.143.41z"/><path id="c" d="M88.131 83.682c14.313 9.633 29.822 16.309 62.76 4.969l-15.703 54.578c-28.98 12.742-48.541 5.09-63.201-3.77z"/><path id="d" d="M63.135 134.475c-14.331-9.648-29.868-17.465-62.942-3.793l16.045-56.079c33.079-13.68 49.107-6.4 63.426 3.303z"/><path id="e" d="m35.432 7.781-.182-.052a.523.523 0 0 1 .298-.35l.027-.008c.001.001-.06.126-.143.41z"/><path id="f" d="M88.131 83.682c14.313 9.633 29.822 16.309 62.76 4.969l-15.703 54.578c-28.98 12.742-48.541 5.09-63.201-3.77z"/><path id="g" d="M63.135 134.475c-14.331-9.648-29.868-17.465-62.942-3.793l16.045-56.079c33.079-13.68 49.107-6.4 63.426 3.303z"/><path id="h" d="m35.432 7.781-.182-.052a.523.523 0 0 1 .298-.35l.027-.008c.001.001-.06.126-.143.41z"/><path id="i" d="M88.131 83.682c14.313 9.633 29.822 16.309 62.76 4.969l-15.703 54.578c-28.98 12.742-48.541 5.09-63.201-3.77z"/><path id="j" d="M63.135 134.475c-14.331-9.648-29.868-17.465-62.942-3.793l16.045-56.079c33.079-13.68 49.107-6.4 63.426 3.303z"/><path id="k" d="m35.432 7.781-.182-.052a.523.523 0 0 1 .298-.35l.027-.008c.001.001-.06.126-.143.41z"/><path id="l" d="M88.131 83.682c14.313 9.633 29.822 16.309 62.76 4.969l-15.703 54.578c-28.98 12.742-48.541 5.09-63.201-3.77z"/><path id="m" d="M63.135 134.475c-14.331-9.648-29.868-17.465-62.942-3.793l16.045-56.079c33.079-13.68 49.107-6.4 63.426 3.303z"/><path id="n" d="m35.432 7.781-.182-.052a.523.523 0 0 1 .298-.35l.027-.008c.001.001-.06.126-.143.41z"/><path id="o" d="M88.131 83.682c14.313 9.633 29.822 16.309 62.76 4.969l-15.703 54.578c-28.98 12.742-48.541 5.09-63.201-3.77z"/><path id="ag" d="M107.254 17.442c14.297 9.621 30.156 17.29 63.152 3.648L154.15 77.255c-27.541 12.922-49.002 6.278-63.283-3.398z"/><path id="C" d="M63.135 134.475c-14.331-9.648-29.868-17.465-62.942-3.793l16.045-56.079c33.079-13.68 49.107-6.4 63.426 3.303z"/><path id="F" d="m35.432 7.781-.182-.052a.523.523 0 0 1 .298-.35l.027-.008c.001.001-.06.126-.143.41z"/><path id="T" d="M88.131 83.682c14.313 9.633 29.822 16.309 62.76 4.969l-15.703 54.578c-28.98 12.742-48.541 5.09-63.201-3.77z"/><clipPath id="aj"><use xlink:href="#C" width="100%" height="100%"/></clipPath><clipPath id="am"><use xlink:href="#F" width="100%" height="100%"/></clipPath><clipPath id="aB"><use xlink:href="#T" width="100%" height="100%"/></clipPath></defs><path d="M478.973 467.8v-18.97h6.1v-2.333h-14.85v2.333h6.096v18.97zM488.105 467.8h2.268v-18.588l6.96 18.588h1.823l6.895-18.588V467.8h2.587v-21.303h-3.896l-6.289 17.023-6.385-17.023h-3.963z"/><path style="fill:#83b641" d="M170.407 21.106c-32.996 13.644-48.867 5.999-63.164-3.624.033-.126.092-.37-.004-.604 14.297 9.625 30.486 17.371 63.48 3.729-.219.201-.219.301-.312.499z" transform="matrix(3.20879 0 0 3.20879 .003 .002)"/><path style="clip-rule:evenodd;fill:#8aa742;fill-rule:evenodd" d="m88.545 74.152 16.178-55.991 1.178-.842-16.115 55.979-1.242.983z" transform="matrix(3.20879 0 0 3.20879 .003 .002)"/><path style="fill:url(#V)" d="M91 73.923c-.502-.281-.864-.847-1.31-.672l16.155-55.907c.248-.111.873-.325 1.463.14z" transform="matrix(3.20879 0 0 3.20879 .003 .002)"/><path style="clip-rule:evenodd;fill:#8aa742;fill-rule:evenodd" d="m106.053 16.956-.166.4-1.178.851c.1-.382.998-1.019 1.275-1.212.052-.036.069-.039.069-.039z" transform="matrix(3.20879 0 0 3.20879 .003 .002)"/><path style="fill:url(#W)" d="M107.252 17.444c-.611-.377-1.162-.194-1.412-.086.039-.119.145-.363.145-.363.531-.336.762-.352 1.258-.115.064.185.091.363.009.564z" transform="matrix(3.20879 0 0 3.20879 .003 .002)"/><path style="clip-rule:evenodd;fill:url(#X);fill-rule:evenodd" d="M171.631 21.522s-.369-.509-1.252-.346c.078-.209.078-.405.34-.57.531-.08.789.06.902.169a.352.352 0 0 1 .082.113c.071.312-.072.634-.072.634z" transform="matrix(3.20879 0 0 3.20879 .003 .002)"/><path style="clip-rule:evenodd;fill:url(#Y);fill-rule:evenodd" d="m171.622 20.775 1.305 1.047c.078.35-.09.705-.09.705l-1.309-1.051s.164-.39.094-.701z" transform="matrix(3.20879 0 0 3.20879 .003 .002)"/><path style="clip-rule:evenodd;fill:#595e48;fill-rule:evenodd" d="m156.481 78.712-1.238-1.093 16.312-56.217 1.332 1.059z" transform="matrix(3.20879 0 0 3.20879 .003 .002)"/><path style="clip-rule:evenodd;fill:#767e47;fill-rule:evenodd" d="M156.801 79.119c.035-.321-.307-.586-.307-.586L172.87 22.41s.26.234.33.403z" transform="matrix(3.20879 0 0 3.20879 .003 .002)"/><path style="clip-rule:evenodd;fill:url(#Z);fill-rule:evenodd" d="M173.196 22.834s-.059-.161-.338-.396c.127-.528.043-.634.043-.634l.025.017c0 .001.41.374.27 1.013z" transform="matrix(3.20879 0 0 3.20879 .003 .002)"/><path style="clip-rule:evenodd;fill:#595e48;fill-rule:evenodd" d="M156.254 79.643c-8.818 4.004-17.164 6.07-24.914 6.746-13.383 1.52-24.205-1.391-33.047-5.734a65.885 65.885 0 0 1-9.305-5.219l.149-.129c2.792 1.879 5.835 3.715 9.155 5.348 8.984 4.125 20.195 6.848 33.047 5.734 7.32-.828 15.406-2.988 24.355-6.957.252.203.56.211.56.211z" transform="matrix(3.20879 0 0 3.20879 .003 .002)"/><path style="fill:url(#aa)" d="M154.473 78.599s-.631-.566-.516-1.395a1.512 1.512 0 0 1 1.391.32s-.156.763-.875 1.075z" transform="matrix(3.20879 0 0 3.20879 .003 .002)"/><path style="clip-rule:evenodd;fill:url(#ab);fill-rule:evenodd" d="m155.348 77.525 1.186 1.035s-.182.649-.902.965l-1.205-1.032c.722-.316.921-.968.921-.968z" transform="matrix(3.20879 0 0 3.20879 .003 .002)"/><path style="fill:url(#ac)" d="M154.153 77.187c-.115.83.496 1.436.496 1.436-33.002 13.645-50.004 5.61-64.288-4.066.251-.184.29-.182.453-.764 14.282 9.678 35.87 16.459 63.339 3.394z" transform="matrix(3.20879 0 0 3.20879 .003 .002)"/><path style="clip-rule:evenodd;fill:#767e47;fill-rule:evenodd" d="m89.144 75.365 1.227-.82c14.29 9.2 31.169 17.157 64.136 3.91l1.193 1.036c-31.653 13.964-51.903 6.187-66.556-4.126z" transform="matrix(3.20879 0 0 3.20879 .003 .002)"/><path style="clip-rule:evenodd;fill:#767e47;fill-rule:evenodd" d="M156.801 79.119a1.379 1.379 0 0 1-.547.523c-.02.012-.033.012-.033.012s-.225.031-.525-.164c.645-.352.832-1.055.832-1.055s.375.313.273.684zM89.189 75.349l-.147.121s-.804-.434-.496-1.318c.072.869.643 1.197.643 1.197z" transform="matrix(3.20879 0 0 3.20879 .003 .002)"/><path style="fill:url(#ad)" d="m88.545 74.152 1.184-.936c-.069.902.711 1.277.711 1.277l-1.204.926s-.759-.363-.691-1.267z" transform="matrix(3.20879 0 0 3.20879 .003 .002)"/><path style="fill:url(#ae)" d="M89.703 73.216c.405-.123.771.297 1.267.682-.161.584-.303.484-.554.67-.294-.176-.788-.61-.713-1.352z" transform="matrix(3.20879 0 0 3.20879 .003 .002)"/><path style="fill:url(#af)" d="m153.997 77.314 16.332-56.189c.883-.163 1.305.337 1.305.337l-16.285 56.063c-.001 0-.653-.5-1.352-.211z" transform="matrix(3.20879 0 0 3.20879 .003 .002)"/><path style="fill:url(#ah)" d="M170.407 21.09c-32.996 13.642-48.861 5.973-63.16-3.65L90.969 73.902c14.285 9.678 31.531 17.635 63.188 3.463z" transform="matrix(3.20879 0 0 3.20879 .003 .002)"/><path style="clip-rule:evenodd;fill:#313c7e;fill-rule:evenodd" d="M1.36 132.346c.108.016.307-.078.307-.078.229.156.411.266.411.266s-.358.085-.718-.188z" transform="matrix(3.20879 0 0 3.20879 .003 .002)"/><path style="fill:#313c7e" d="M62.57 135.236s.219.203.471.133l-.989.586c-.316.141-.641-.082-.641-.082zM1.68 132.275s-.193.098-.302.082l-1.085-.828-.025-.023a.827.827 0 0 0 .411.012z" transform="matrix(3.20879 0 0 3.20879 .003 .002)"/><path style="fill:#2e499e" d="M63.125 134.428a.967.967 0 0 1 .344.398c-.063.297-.311.449-.451.559-.202.047-.485-.145-.485-.145.158-.133.428-.324.592-.812z" transform="matrix(3.20879 0 0 3.20879 .003 .002)"/><path style="clip-rule:evenodd;fill:#2e499e;fill-rule:evenodd" d="M16.084 74.603h.324v.018h-.324z" transform="matrix(3.20879 0 0 3.20879 .003 .002)"/><path style="clip-rule:evenodd;fill:#2e499e;fill-rule:evenodd" d="M.023 130.752 16.086 74.56l.181.051-16.06 56.188Z" transform="matrix(3.20879 0 0 3.20879 .003 .002)"/><path style="clip-rule:evenodd;fill:#2e499e;fill-rule:evenodd" d="M.293 131.529c-.208-.18-.352-.488-.271-.777l.193-.074c-.081.418.226.719.45.848.002-.001-.162.081-.372.003z" transform="matrix(3.20879 0 0 3.20879 .003 .002)"/><path style="fill:url(#ai)" d="M62.56 135.275c-14.332-9.645-29.185-17.012-61.874-3.73-.225-.133-.567-.453-.487-.875 33.192-14.129 48.613-5.875 62.945 3.773-.146.512-.426.703-.584.832z" transform="matrix(3.20879 0 0 3.20879 .003 .002)"/><path style="clip-rule:evenodd;fill:#313c7e;fill-rule:evenodd" d="M1.615 132.232c31.464-12.301 45.567-5.602 59.892 3.621-8.58-5.523-17.41-9.945-29.594-10.02-8.154-.047-17.791 2.023-29.851 6.699 0 .001-.249-.093-.447-.3z" transform="matrix(3.20879 0 0 3.20879 .003 .002)"/><path style="clip-rule:evenodd;fill:#2e499e;fill-rule:evenodd" d="m62.577 135.271-1.159.605c-14.325-9.223-28.823-15.598-59.737-3.602l-1.022-.746c32.689-13.284 47.587-5.905 61.918 3.743z" transform="matrix(3.20879 0 0 3.20879 .003 .002)"/><path style="clip-rule:evenodd;fill:#313c7e;fill-rule:evenodd" d="m63.115 134.459 16.527-56.567c.177.123.271.219.363.324l-16.542 56.637c-.093-.238-.348-.394-.348-.394z" transform="matrix(3.20879 0 0 3.20879 .003 .002)"/><path style="clip-rule:evenodd;fill:#3f87c7;fill-rule:evenodd" d="M79.635 77.919c-14.318-9.704-30.467-16.728-63.403-3.285.082-.281.149-.414.149-.414 33.081-13.678 49.056-6.416 63.373 3.289Z" transform="matrix(3.20879 0 0 3.20879 .003 .002)"/><g clip-path="url(#aj)" transform="matrix(3.20879 0 0 3.20879 .003 .002)"><path style="fill:url(#ak)" d="M63.141 134.596c-14.331-9.645-29.91-17.578-62.984-3.902l16.195-56.567c33.081-13.678 48.973-5.938 63.29 3.766z"/><path style="fill:none" d="M63.141 134.596c-14.331-9.645-29.91-17.578-62.984-3.902l16.195-56.567c33.081-13.678 48.973-5.938 63.29 3.766z"/></g><path style="clip-rule:evenodd;fill:#313c7e;fill-rule:evenodd" d="m79.749 77.505.027.016c.204.145.287.426.229.695l-.012.035a1.833 1.833 0 0 0-.362-.326z" transform="matrix(3.20879 0 0 3.20879 .003 .002)"/><path style="clip-rule:evenodd;fill:url(#al);fill-rule:evenodd" d="m16.265 74.621-.181-.053a.515.515 0 0 1 .297-.348l.027-.008c.001 0-.06.125-.143.409z" transform="matrix(3.20879 0 0 3.20879 .003 .002)"/><path style="clip-rule:evenodd;fill:#d75329;fill-rule:evenodd" d="M81.828 68.497C66.43 57.811 47.556 51.1 19.527 65.029l1.146.809c30.627-12.517 46.605-5.742 60.041 3.108Z" transform="matrix(3.20879 0 0 3.20879 .003 .002)"/><path style="clip-rule:evenodd;fill:#ab4533;fill-rule:evenodd" d="m82.368 67.668 16.27-56.174c.176.12.262.236.355.34L82.716 68.056c-.093-.236-.348-.388-.348-.388ZM20.683 65.82c5.212-2.138 10.039-3.725 14.518-4.814 1.086-.263 2.051-.501 3.197-.722a63.538 63.538 0 0 1 3.116-.565c1.597-.244 3.146-.445 4.654-.561a54.183 54.183 0 0 1 3.774-.188 50.56 50.56 0 0 1 3.483.067c1.01.058 1.998.131 2.971.246.822.096 1.626.197 2.421.334a46.79 46.79 0 0 1 4.869 1.087c6.332 1.791 11.956 4.844 17.127 8.292-.034.016-.158-.036-.212-.065-.05-.024-.073-.026-.117-.056-6.991-4.432-14.502-8.286-23.77-9.423-9.486-1.166-20.54.467-35.433 6.378 0 0-.347.147-.479.171-.119.019-.097-.072-.119-.181z" transform="matrix(3.20879 0 0 3.20879 .003 .002)"/><path style="fill:#ab4533" d="M81.802 68.487s.221.155.471.098l-1.027.453c-.277.081-.606-.09-.606-.09zM20.697 65.83l.105.173c-.101.014-.113.04-.362-.071-.033-.013-.083-.054-.124-.072l-1.063-.836-.096-.079c.145-.01.256.06.329.046z" transform="matrix(3.20879 0 0 3.20879 .003 .002)"/><path style="fill:#d75329" d="M82.379 67.67c.114.076.25.121.345.357-.063.299-.317.449-.459.559-.252.071-.501-.123-.501-.123.159-.127.451-.307.615-.793z" transform="matrix(3.20879 0 0 3.20879 .003 .002)"/><path style="clip-rule:evenodd;fill:#d75329;fill-rule:evenodd" d="m98.747 11.129.02.012c.201.144.285.426.227.693l-.01.036c-.094-.105-.154-.209-.338-.348ZM19.179 64.975c-.154-.121-.309-.594-.229-.882l.216-.075c-.08.417.178.892.402 1.021.001 0-.157.089-.389-.064z" transform="matrix(3.20879 0 0 3.20879 .003 .002)"/><path style="clip-rule:evenodd;fill:#faaa4f;fill-rule:evenodd" clip-path="url(#am)" d="M35.25 7.372h.325v.024h-.325Z" transform="matrix(3.20879 0 0 3.20879 .003 .002)"/><path style="clip-rule:evenodd;fill:#f6a34c;fill-rule:evenodd" clip-path="url(#am)" d="M35.25 7.396h.325v.027h-.325Z" transform="matrix(3.20879 0 0 3.20879 .003 .002)"/><path style="clip-rule:evenodd;fill:#f39d48;fill-rule:evenodd" clip-path="url(#am)" d="M35.25 7.423h.325v.024h-.325Z" transform="matrix(3.20879 0 0 3.20879 .003 .002)"/><path style="clip-rule:evenodd;fill:#f09745;fill-rule:evenodd" clip-path="url(#am)" d="M35.25 7.448h.325v.027h-.325Z" transform="matrix(3.20879 0 0 3.20879 .003 .002)"/><path style="clip-rule:evenodd;fill:#ed9142;fill-rule:evenodd" clip-path="url(#am)" d="M35.25 7.475h.325V7.5h-.325Z" transform="matrix(3.20879 0 0 3.20879 .003 .002)"/><path style="clip-rule:evenodd;fill:#eb8c3f;fill-rule:evenodd" clip-path="url(#am)" d="M35.25 7.5h.325v.024h-.325Z" transform="matrix(3.20879 0 0 3.20879 .003 .002)"/><path style="clip-rule:evenodd;fill:#e8863c;fill-rule:evenodd" clip-path="url(#am)" d="M35.25 7.525h.325v.025h-.325Z" transform="matrix(3.20879 0 0 3.20879 .003 .002)"/><path style="clip-rule:evenodd;fill:#e68139;fill-rule:evenodd" clip-path="url(#am)" d="M35.25 7.55h.325v.024h-.325Z" transform="matrix(3.20879 0 0 3.20879 .003 .002)"/><path style="clip-rule:evenodd;fill:#e57b37;fill-rule:evenodd" clip-path="url(#am)" d="M35.25 7.575h.325V7.6h-.325Z" transform="matrix(3.20879 0 0 3.20879 .003 .002)"/><path style="clip-rule:evenodd;fill:#e27634;fill-rule:evenodd" clip-path="url(#am)" d="M35.25 7.6h.325v.025h-.325Z" transform="matrix(3.20879 0 0 3.20879 .003 .002)"/><path style="clip-rule:evenodd;fill:#e07132;fill-rule:evenodd" clip-path="url(#am)" d="M35.25 7.625h.325v.026h-.325Z" transform="matrix(3.20879 0 0 3.20879 .003 .002)"/><path style="clip-rule:evenodd;fill:#df6b30;fill-rule:evenodd" clip-path="url(#am)" d="M35.25 7.652h.325v.025h-.325Z" transform="matrix(3.20879 0 0 3.20879 .003 .002)"/><path style="clip-rule:evenodd;fill:#dc662e;fill-rule:evenodd" clip-path="url(#am)" d="M35.25 7.677h.325v.024h-.325Z" transform="matrix(3.20879 0 0 3.20879 .003 .002)"/><path style="clip-rule:evenodd;fill:#db602c;fill-rule:evenodd" clip-path="url(#am)" d="M35.25 7.702h.325v.027h-.325Z" transform="matrix(3.20879 0 0 3.20879 .003 .002)"/><path style="clip-rule:evenodd;fill:#d95a2a;fill-rule:evenodd" clip-path="url(#am)" d="M35.25 7.729h.325v.024h-.325Z" transform="matrix(3.20879 0 0 3.20879 .003 .002)"/><path style="clip-rule:evenodd;fill:#d75329;fill-rule:evenodd" clip-path="url(#am)" d="M35.25 7.753h.325v.027h-.325Z" transform="matrix(3.20879 0 0 3.20879 .003 .002)"/><path style="fill:url(#an)" d="M81.798 68.491c-8.814-5.762-17.065-10.532-30.13-10.908-9.554.189-16.878 1.406-32.113 7.457-.225-.128-.51-.447-.431-.866 13.191-5.617 23.663-8.04 32.354-7.955 13.16.131 22.283 5.637 30.909 11.44-.146.508-.43.703-.589.832z" transform="matrix(3.20879 0 0 3.20879 .003 .002)"/><path style="clip-rule:evenodd;fill:#d75329;fill-rule:evenodd" d="m35.255 7.719.151.048-16.245 56.388c-.037-.016-.21-.062-.21-.062z" transform="matrix(3.20879 0 0 3.20879 .003 .002)"/><path style="clip-rule:evenodd;fill:#f89c3e;fill-rule:evenodd" d="M98.641 11.559C84.333 1.864 68.303-5.622 35.39 7.811c.084-.282.158-.432.158-.432 33.059-13.667 48.907-5.937 63.218 3.762Z" transform="matrix(3.20879 0 0 3.20879 .003 .002)"/><path style="fill:url(#ao)" d="M82.392 67.68c-8.628-5.81-17.907-11.233-31.085-11.333-8.695-.067-19.045 2.403-32.184 7.836L35.406 7.761c33.059-13.669 48.938-5.933 63.245 3.764Z" transform="matrix(3.20879 0 0 3.20879 .003 .002)"/><path style="clip-rule:evenodd;fill:url(#ap);fill-rule:evenodd" d="M137.993 145.178c-.16.297-.449.473-.545.523-.021.012-.035.012-.035.012s-.275.035-.525-.164c.645-.352.836-1.059.836-1.059s.372.317.269.688z" transform="matrix(3.20879 0 0 3.20879 .003 .002)"/><path style="clip-rule:evenodd;fill:#d4a52e;fill-rule:evenodd" d="M137.993 145.178c.039-.32-.305-.59-.305-.59l15.668-54.613s.262.23.334.402z" transform="matrix(3.20879 0 0 3.20879 .003 .002)"/><path style="clip-rule:evenodd;fill:url(#aq);fill-rule:evenodd" d="M153.68 90.4s-.051-.156-.332-.391c.129-.531.039-.645.039-.645l.025.016c.001.001.413.38.268 1.02z" transform="matrix(3.20879 0 0 3.20879 .003 .002)"/><path style="clip-rule:evenodd;fill:url(#ar);fill-rule:evenodd" d="M152.118 89.084s-.434-.527-1.316-.363c.047-.199.121-.441.402-.555.533-.082.789.059.902.168.064.066.082.113.082.113.07.313-.07.637-.07.637z" transform="matrix(3.20879 0 0 3.20879 .003 .002)"/><path style="clip-rule:evenodd;fill:url(#as);fill-rule:evenodd" d="m152.106 88.334 1.307 1.047c.076.355-.064.707-.064.707l-1.301-1.043c-.001 0 .128-.399.058-.711z" transform="matrix(3.20879 0 0 3.20879 .003 .002)"/><path style="clip-rule:evenodd;fill:#a87c3c;fill-rule:evenodd" d="m137.661 144.768-1.373-1.184 15.754-54.621 1.33 1.062-15.649 54.594z" transform="matrix(3.20879 0 0 3.20879 .003 .002)"/><path style="fill:url(#at)" d="M135.516 144.564s-.629-.563-.516-1.395a1.529 1.529 0 0 1 1.395.32s-.156.759-.879 1.075z" transform="matrix(3.20879 0 0 3.20879 .003 .002)"/><path style="fill:#ffcd02" d="M150.856 88.775c-33.176 11.301-48.441 4.547-62.754-5.086.034-.129.122-.34.025-.578 14.313 9.633 30.143 16.211 63.076 5.055-.249.172-.281.406-.347.609z" transform="matrix(3.20879 0 0 3.20879 .003 .002)"/><path style="clip-rule:evenodd;fill:#d4a52e;fill-rule:evenodd" d="m69.516 140.111 16.085-55.722 1.177-.856-16.021 55.727-1.244.984z" transform="matrix(3.20879 0 0 3.20879 .003 .002)"/><path style="fill:url(#au)" d="M72.12 139.525c-.467-.277-1.011-.488-1.457-.309l16.063-55.66c.25-.105.844-.27 1.453.156z" transform="matrix(3.20879 0 0 3.20879 .003 .002)"/><path style="fill:url(#av)" d="m135.04 143.283 15.758-54.582c.029-.008.068-.047.094-.051.838-.086 1.227.359 1.227.359l-15.715 54.496c-.001.001-.665-.515-1.364-.222z" transform="matrix(3.20879 0 0 3.20879 .003 .002)"/><path style="clip-rule:evenodd;fill:#a87c3c;fill-rule:evenodd" d="M137.448 145.701c-32.396 13.848-53.176 5.332-67.489-4.305l.15-.125c14.313 9.633 36.339 17.656 66.778 4.219.252.199.561.211.561.211z" transform="matrix(3.20879 0 0 3.20879 .003 .002)"/><path style="clip-rule:evenodd;fill:url(#aw);fill-rule:evenodd" d="m136.393 143.498 1.334 1.121s-.18.648-.902.965l-1.355-1.125a1.71 1.71 0 0 0 .923-.961z" transform="matrix(3.20879 0 0 3.20879 .003 .002)"/><path style="fill:url(#ax)" d="M135.196 143.154c-.113.832.498 1.434.498 1.434-33.037 13.664-49.957 5.473-64.257-4.219.252-.184.375-.344.536-.922.021.012.221-.02.241-.008 14.761 9.09 33.654 16.274 62.982 3.715z" transform="matrix(3.20879 0 0 3.20879 .003 .002)"/><path style="clip-rule:evenodd;fill:#c19236;fill-rule:evenodd" d="m70.115 141.326 1.322-.957c13.117 8.18 31.501 17.141 64.114 4.055l1.348 1.125c-30.313 13.426-52.471 5.414-66.784-4.223z" transform="matrix(3.20879 0 0 3.20879 .003 .002)"/><path style="clip-rule:evenodd;fill:#d4a52e;fill-rule:evenodd" d="m70.227 141.369-.15.105s-.87-.48-.561-1.363c.071.871.711 1.258.711 1.258z" transform="matrix(3.20879 0 0 3.20879 .003 .002)"/><path style="fill:url(#ay)" d="m69.516 140.111 1.242-1.016c-.068.91.813 1.246.813 1.246l-1.364 1.043c.001.001-.76-.366-.691-1.273z" transform="matrix(3.20879 0 0 3.20879 .003 .002)"/><path style="fill:url(#az)" d="M70.666 139.131c.445-.18.862.031 1.331.305-.163.582-.261.785-.513.969-.294-.176-.893-.536-.818-1.274z" transform="matrix(3.20879 0 0 3.20879 .003 .002)"/><path style="fill:url(#aA)" d="M88.226 83.334c14.313 9.637 30.212 17.313 63.243 3.66l-16.281 56.234c-33.037 13.664-48.903 5.926-63.201-3.77z" clip-path="url(#aB)" transform="matrix(3.20879 0 0 3.20879 .003 .002)"/><path style="fill:none" d="M88.226 83.334c14.313 9.637 30.212 17.313 63.243 3.66l-16.281 56.234c-33.037 13.664-48.903 5.926-63.201-3.77z" clip-path="url(#aB)" transform="matrix(3.20879 0 0 3.20879 .003 .002)"/><path style="clip-rule:evenodd;fill:#ffcd02;fill-rule:evenodd" d="m86.933 83.182-.17.398-1.178.852c.076-.355.984-1.012 1.264-1.207.037-.028.084-.043.084-.043z" transform="matrix(3.20879 0 0 3.20879 .003 .002)"/><path style="fill:url(#aC)" d="M88.133 83.686c-.657-.383-1.193-.152-1.443-.043.039-.121.174-.426.174-.426.532-.34.774-.34 1.271-.102.096.235.033.422-.002.571z" transform="matrix(3.20879 0 0 3.20879 .003 .002)"/><text xml:space="preserve" style="font-style:normal;font-weight:400;font-size:40px;line-height:1.25;font-family:sans-serif;letter-spacing:0;word-spacing:0;fill:#000;fill-opacity:1;stroke:none" x="577.365" y="220.345"/><text xml:space="preserve" style="font-style:normal;font-weight:400;font-size:40px;line-height:1.25;font-family:sans-serif;letter-spacing:0;word-spacing:0;fill:#000;fill-opacity:1;stroke:none" x="550.474" y="470.273"><tspan x="550.474" y="470.273" style="font-style:normal;font-variant:normal;font-weight:700;font-stretch:normal;font-size:400px;line-height:1.25;font-family:Arial;-inkscape-font-specification:'Arial Bold'">Lunadon</tspan></text><path d="M2604.606 151.52c-3.181 16.365-28.492 34.277-57.562 37.748-15.16 1.809-30.084 3.471-46 2.741-26.027-1.192-46.564-6.212-46.564-6.212 0 2.533.156 4.946.469 7.202 3.383 25.686 25.47 27.225 46.39 27.943 21.117.722 39.92-5.207 39.92-5.207l.867 19.09s-14.77 7.932-41.081 9.39c-14.509.798-32.524-.365-53.506-5.918-45.508-12.045-53.334-60.554-54.532-109.774-.365-14.614-.14-28.394-.14-39.919 0-50.33 32.977-65.082 32.977-65.082 16.627-7.637 45.158-10.848 74.82-11.09h.728c29.662.242 58.212 3.453 74.838 11.09 0 0 32.975 14.752 32.975 65.082 0 0 .414 37.134-4.599 62.915" style="fill:#f4793b;fill-opacity:1" transform="matrix(.9196 0 0 .86364 -54.073 32.868)"/><path d="M2570.309 92.509v60.94h-24.144V94.3c0-12.468-5.246-18.797-15.74-18.797-11.603 0-17.418 7.508-17.418 22.353v32.376h-24V97.855c0-14.845-5.817-22.353-17.42-22.353-10.493 0-15.74 6.33-15.74 18.798v59.15h-24.143V92.509c0-12.455 3.17-22.353 9.54-29.675 6.57-7.323 15.172-11.077 25.85-11.077 12.356 0 21.712 4.75 27.898 14.248l6.014 10.081 6.015-10.081c6.185-9.499 15.541-14.248 27.898-14.248 10.677 0 19.28 3.754 25.85 11.077 6.368 7.322 9.54 17.22 9.54 29.675" style="fill:#fff" transform="matrix(.9196 0 0 .86364 -54.073 32.868)"/></svg>